<?xml version="1.0" encoding="UTF-8" standalone="no"?>
<!-- Created with Inkscape (http://www.inkscape.org/) -->

<svg
   xmlns:dc="http://purl.org/dc/elements/1.1/"
   xmlns:cc="http://creativecommons.org/ns#"
   xmlns:rdf="http://www.w3.org/1999/02/22-rdf-syntax-ns#"
   xmlns:svg="http://www.w3.org/2000/svg"
   xmlns="http://www.w3.org/2000/svg"
   xmlns:sodipodi="http://sodipodi.sourceforge.net/DTD/sodipodi-0.dtd"
   xmlns:inkscape="http://www.inkscape.org/namespaces/inkscape"
   width="64"
   height="64"
   id="svg2"
   version="1.1"
   inkscape:version="0.48.2 r9819"
   sodipodi:docname="about.svg"
   inkscape:export-filename="C:\Users\Мерлин\Desktop\diary_of_calories\about_48x48.png"
   inkscape:export-xdpi="67.5"
   inkscape:export-ydpi="67.5">
  <defs
     id="defs4" />
  <sodipodi:namedview
     id="base"
     pagecolor="#ffffff"
     bordercolor="#666666"
     borderopacity="1.0"
     inkscape:pageopacity="0.0"
     inkscape:pageshadow="2"
     inkscape:zoom="3.959798"
     inkscape:cx="-25.623853"
     inkscape:cy="14.599506"
     inkscape:document-units="px"
     inkscape:current-layer="layer1"
     showgrid="false"
     inkscape:window-width="1429"
     inkscape:window-height="455"
     inkscape:window-x="2"
     inkscape:window-y="482"
     inkscape:window-maximized="0" />
  <metadata
     id="metadata7">
    <rdf:RDF>
      <cc:Work
         rdf:about="">
        <dc:format>image/svg+xml</dc:format>
        <dc:type
           rdf:resource="http://purl.org/dc/dcmitype/StillImage" />
        <dc:title></dc:title>
      </cc:Work>
    </rdf:RDF>
  </metadata>
  <g
     inkscape:label="Layer 1"
     inkscape:groupmode="layer"
     id="layer1"
     transform="translate(0,-988.36218)">
    <path
       id="path4666"
       transform="translate(0,988.36218)"
       style="fill:none;stroke:#ffffff;stroke-width:2.50000000000000000;stroke-linecap:butt;stroke-linejoin:round;stroke-opacity:1;stroke-miterlimit:4;stroke-dasharray:none"
       d="m 28.536809,49.352788 6.81853,0 -0.0012,-19.111118 C 41.967272,28.644511 46.89975,23.225688 46.89975,16.149747 l 0,0 0,0 C 46.89975,7.9208427 40.228905,1.2499975 32,1.2499975 c -7.918201,0 -14.393778,6.1766049 -14.871494,13.9745775 l 6.577122,0.02157 C 24.445595,10.671031 27.789383,7.9422594 32,7.9422594 c 4.532871,0 8.207489,3.6746176 8.207489,8.2074896 l 0,0 0,0 c 0,4.532871 -3.674618,8.207489 -8.207489,8.207489 -1.47256,0 -1.745667,0.0063 -3.35675,0.0039 z"
       inkscape:connector-curvature="0"
       sodipodi:nodetypes="ccccccsccscccscc" />
    <path
       sodipodi:type="arc"
       style="opacity:1;fill:none;stroke:#ffffff;stroke-width:2.69230771000000010;stroke-linejoin:round;stroke-miterlimit:4;stroke-opacity:1;stroke-dasharray:none"
       id="path4683"
       sodipodi:cx="33.035713"
       sodipodi:cy="60.607143"
       sodipodi:rx="3.75"
       sodipodi:ry="3.75"
       d="m 36.785713,60.607143 c 0,2.071068 -1.678932,3.75 -3.75,3.75 -2.071068,0 -3.75,-1.678932 -3.75,-3.75 0,-2.071067 1.678932,-3.75 3.75,-3.75 2.071068,0 3.75,1.678933 3.75,3.75 z"
       transform="matrix(0.92857143,0,0,0.92857143,1.3775509,989.64022)" />
    <rect
       style="opacity:0.5;fill:none;stroke:none"
       id="rect4685"
       width="64"
       height="64"
       x="0"
       y="988.36218" />
  </g>
</svg>
